<?xml version="1.0" encoding="UTF-8"?>
<svg width="500" height="500" viewBox="0 0 500 500" fill="none" xmlns="http://www.w3.org/2000/svg">
  <!-- Background -->
  <rect width="500" height="500" fill="white" fill-opacity="0"/>
  
  <!-- Small stars -->
  <g opacity="0.07">
    <path d="M50 80L53 88H62L55 93L58 101L50 96L42 101L45 93L38 88H47L50 80Z" fill="#6C5CE7"/>
    <path d="M150 30L153 38H162L155 43L158 51L150 46L142 51L145 43L138 38H147L150 30Z" fill="#D94AE6"/>
    <path d="M250 60L253 68H262L255 73L258 81L250 76L242 81L245 73L238 68H247L250 60Z" fill="#6C5CE7"/>
    <path d="M350 40L353 48H362L355 53L358 61L350 56L342 61L345 53L338 48H347L350 40Z" fill="#D94AE6"/>
    <path d="M450 90L453 98H462L455 103L458 111L450 106L442 111L445 103L438 98H447L450 90Z" fill="#6C5CE7"/>
    <path d="M80 180L83 188H92L85 193L88 201L80 196L72 201L75 193L68 188H77L80 180Z" fill="#D94AE6"/>
    <path d="M180 140L183 148H192L185 153L188 161L180 156L172 161L175 153L168 148H177L180 140Z" fill="#6C5CE7"/>
    <path d="M280 190L283 198H292L285 203L288 211L280 206L272 211L275 203L268 198H277L280 190Z" fill="#D94AE6"/>
    <path d="M380 150L383 158H392L385 163L388 171L380 166L372 171L375 163L368 158H377L380 150Z" fill="#6C5CE7"/>
    <path d="M480 200L483 208H492L485 213L488 221L480 216L472 221L475 213L468 208H477L480 200Z" fill="#D94AE6"/>
    <path d="M30 280L33 288H42L35 293L38 301L30 296L22 301L25 293L18 288H27L30 280Z" fill="#6C5CE7"/>
    <path d="M130 240L133 248H142L135 253L138 261L130 256L122 261L125 253L118 248H127L130 240Z" fill="#D94AE6"/>
    <path d="M230 290L233 298H242L235 303L238 311L230 306L222 311L225 303L218 298H227L230 290Z" fill="#6C5CE7"/>
    <path d="M330 250L333 258H342L335 263L338 271L330 266L322 271L325 263L318 258H327L330 250Z" fill="#D94AE6"/>
    <path d="M430 300L433 308H442L435 313L438 321L430 316L422 321L425 313L418 308H427L430 300Z" fill="#6C5CE7"/>
    <path d="M70 380L73 388H82L75 393L78 401L70 396L62 401L65 393L58 388H67L70 380Z" fill="#D94AE6"/>
    <path d="M170 340L173 348H182L175 353L178 361L170 356L162 361L165 353L158 348H167L170 340Z" fill="#6C5CE7"/>
    <path d="M270 390L273 398H282L275 403L278 411L270 406L262 411L265 403L258 398H267L270 390Z" fill="#D94AE6"/>
    <path d="M370 350L373 358H382L375 363L378 371L370 366L362 371L365 363L358 358H367L370 350Z" fill="#6C5CE7"/>
    <path d="M470 400L473 408H482L475 413L478 421L470 416L462 421L465 413L458 408H467L470 400Z" fill="#D94AE6"/>
  </g>
  
  <!-- Abstract shapes -->
  <g opacity="0.03">
    <circle cx="50" cy="450" r="30" fill="#6C5CE7"/>
    <circle cx="150" cy="480" r="20" fill="#D94AE6"/>
    <circle cx="250" cy="430" r="40" fill="#6C5CE7"/>
    <circle cx="350" cy="470" r="25" fill="#D94AE6"/>
    <circle cx="450" cy="440" r="35" fill="#6C5CE7"/>
    
    <rect x="20" y="120" width="40" height="40" rx="8" fill="#D94AE6"/>
    <rect x="120" y="80" width="50" height="50" rx="10" fill="#6C5CE7"/>
    <rect x="220" y="110" width="30" height="30" rx="6" fill="#D94AE6"/>
    <rect x="320" y="90" width="45" height="45" rx="9" fill="#6C5CE7"/>
    <rect x="420" y="130" width="35" height="35" rx="7" fill="#D94AE6"/>
  </g>
  
  <!-- Larger decorative elements -->
  <g opacity="0.02">
    <path d="M100 320C120 280 80 260 60 300C40 340 80 360 100 320Z" fill="#6C5CE7"/>
    <path d="M200 280C220 240 180 220 160 260C140 300 180 320 200 280Z" fill="#D94AE6"/>
    <path d="M300 300C320 260 280 240 260 280C240 320 280 340 300 300Z" fill="#6C5CE7"/>
    <path d="M400 270C420 230 380 210 360 250C340 290 380 310 400 270Z" fill="#D94AE6"/>
    
    <path d="M100 120C130 120 130 80 100 80C70 80 70 120 100 120Z" fill="#6C5CE7"/>
    <path d="M400 170C430 170 430 130 400 130C370 130 370 170 400 170Z" fill="#D94AE6"/>
  </g>
</svg> 